<svg xmlns="http://www.w3.org/2000/svg" xmlns:xlink="http://www.w3.org/1999/xlink" width="1000" zoomAndPan="magnify" viewBox="0 0 750 749.999995" height="1000" preserveAspectRatio="xMidYMid meet" version="1.0"><defs><filter x="0%" y="0%" width="100%" height="100%" id="14ba3d1039"><feColorMatrix values="0 0 0 0 1 0 0 0 0 1 0 0 0 0 1 0 0 0 1 0" color-interpolation-filters="sRGB"/></filter><clipPath id="4df564bdc9"><path d="M 26.394531 284.710938 L 438.996094 284.710938 L 438.996094 697.308594 L 26.394531 697.308594 Z M 26.394531 284.710938 " clip-rule="nonzero"/></clipPath><clipPath id="21b711a645"><path d="M 701 34 L 728 34 L 728 64 L 701 64 Z M 701 34 " clip-rule="nonzero"/></clipPath><clipPath id="56697ca13d"><path d="M 768.148438 121.585938 L 376.433594 367.296875 L 319.101562 275.894531 L 710.816406 30.1875 Z M 768.148438 121.585938 " clip-rule="nonzero"/></clipPath><clipPath id="fb66761f04"><path d="M 768.148438 121.585938 L 376.433594 367.296875 L 319.101562 275.894531 L 710.816406 30.1875 Z M 768.148438 121.585938 " clip-rule="nonzero"/></clipPath><clipPath id="19802a8cf1"><path d="M 729.871094 60.566406 L 718.050781 67.980469 L 698.9375 37.507812 L 710.757812 30.09375 Z M 729.871094 60.566406 " clip-rule="nonzero"/></clipPath><clipPath id="2ec486be00"><path d="M 729.871094 60.566406 L 718.050781 67.980469 L 699.0625 37.703125 L 710.878906 30.289062 Z M 729.871094 60.566406 " clip-rule="nonzero"/></clipPath><clipPath id="37955e77fa"><path d="M 363 35 L 727 35 L 727 363 L 363 363 Z M 363 35 " clip-rule="nonzero"/></clipPath><clipPath id="46e448845d"><path d="M 768.148438 121.585938 L 376.433594 367.296875 L 319.101562 275.894531 L 710.816406 30.1875 Z M 768.148438 121.585938 " clip-rule="nonzero"/></clipPath><clipPath id="9e845d22c9"><path d="M 768.148438 121.585938 L 376.433594 367.296875 L 319.101562 275.894531 L 710.816406 30.1875 Z M 768.148438 121.585938 " clip-rule="nonzero"/></clipPath><clipPath id="fb6892a782"><path d="M 765.566406 123.101562 L 376.386719 367.21875 L 319.042969 275.804688 L 708.222656 31.683594 Z M 765.566406 123.101562 " clip-rule="nonzero"/></clipPath><clipPath id="8f7cbd1cf4"><path d="M 765.566406 123.101562 L 376.386719 367.21875 L 319.167969 275.996094 L 708.347656 31.878906 Z M 765.566406 123.101562 " clip-rule="nonzero"/></clipPath><mask id="135a28d31f"><g filter="url(#14ba3d1039)"><rect x="-75" width="900" fill="#000000" y="-74.999999" height="899.999994" fill-opacity="0.6863"/></g></mask><clipPath id="cc098e60ce"><path d="M 342 125 L 399 125 L 399 182 L 342 182 Z M 342 125 " clip-rule="nonzero"/></clipPath><clipPath id="6da7932853"><path d="M 234.480469 -0.113281 L 524.558594 289.964844 L 230.289062 584.234375 L -59.785156 294.15625 Z M 234.480469 -0.113281 " clip-rule="nonzero"/></clipPath><clipPath id="a0a5674ce8"><path d="M 234.480469 -0.113281 L 524.558594 289.964844 L 230.289062 584.234375 L -59.785156 294.15625 Z M 234.480469 -0.113281 " clip-rule="nonzero"/></clipPath><clipPath id="ff2659aced"><path d="M 409 185 L 412 185 L 412 188 L 409 188 Z M 409 185 " clip-rule="nonzero"/></clipPath><clipPath id="28eda5b2b3"><path d="M 234.480469 -0.113281 L 524.558594 289.964844 L 230.289062 584.234375 L -59.785156 294.15625 Z M 234.480469 -0.113281 " clip-rule="nonzero"/></clipPath><clipPath id="53345953ec"><path d="M 234.480469 -0.113281 L 524.558594 289.964844 L 230.289062 584.234375 L -59.785156 294.15625 Z M 234.480469 -0.113281 " clip-rule="nonzero"/></clipPath><clipPath id="9c270e0df4"><path d="M 334 111 L 343 111 L 343 117 L 334 117 Z M 334 111 " clip-rule="nonzero"/></clipPath><clipPath id="50769847d9"><path d="M 234.480469 -0.113281 L 524.558594 289.964844 L 230.289062 584.234375 L -59.785156 294.15625 Z M 234.480469 -0.113281 " clip-rule="nonzero"/></clipPath><clipPath id="ce18b25c74"><path d="M 234.480469 -0.113281 L 524.558594 289.964844 L 230.289062 584.234375 L -59.785156 294.15625 Z M 234.480469 -0.113281 " clip-rule="nonzero"/></clipPath><clipPath id="891643cae4"><path d="M 272 92 L 432 92 L 432 253 L 272 253 Z M 272 92 " clip-rule="nonzero"/></clipPath><clipPath id="4e59dcbca8"><path d="M 234.480469 -0.113281 L 524.558594 289.964844 L 230.289062 584.234375 L -59.785156 294.15625 Z M 234.480469 -0.113281 " clip-rule="nonzero"/></clipPath><clipPath id="1e676e9974"><path d="M 234.480469 -0.113281 L 524.558594 289.964844 L 230.289062 584.234375 L -59.785156 294.15625 Z M 234.480469 -0.113281 " clip-rule="nonzero"/></clipPath><clipPath id="4445dd62f4"><path d="M 197 85 L 438 85 L 438 327 L 197 327 Z M 197 85 " clip-rule="nonzero"/></clipPath><clipPath id="eae7deff82"><path d="M 234.480469 -0.113281 L 524.558594 289.964844 L 230.289062 584.234375 L -59.785156 294.15625 Z M 234.480469 -0.113281 " clip-rule="nonzero"/></clipPath><clipPath id="d19badd072"><path d="M 234.480469 -0.113281 L 524.558594 289.964844 L 230.289062 584.234375 L -59.785156 294.15625 Z M 234.480469 -0.113281 " clip-rule="nonzero"/></clipPath><clipPath id="f266931716"><path d="M 127 94 L 429 94 L 429 397 L 127 397 Z M 127 94 " clip-rule="nonzero"/></clipPath><clipPath id="c0f60b7bd1"><path d="M 234.480469 -0.113281 L 524.558594 289.964844 L 230.289062 584.234375 L -59.785156 294.15625 Z M 234.480469 -0.113281 " clip-rule="nonzero"/></clipPath><clipPath id="13da10f9c2"><path d="M 234.480469 -0.113281 L 524.558594 289.964844 L 230.289062 584.234375 L -59.785156 294.15625 Z M 234.480469 -0.113281 " clip-rule="nonzero"/></clipPath><clipPath id="272585ba24"><path d="M 69 132 L 391 132 L 391 455 L 69 455 Z M 69 132 " clip-rule="nonzero"/></clipPath><clipPath id="1ffff7efb5"><path d="M 234.480469 -0.113281 L 524.558594 289.964844 L 230.289062 584.234375 L -59.785156 294.15625 Z M 234.480469 -0.113281 " clip-rule="nonzero"/></clipPath><clipPath id="119ea12854"><path d="M 234.480469 -0.113281 L 524.558594 289.964844 L 230.289062 584.234375 L -59.785156 294.15625 Z M 234.480469 -0.113281 " clip-rule="nonzero"/></clipPath><clipPath id="8715d54987"><path d="M 34 195 L 328 195 L 328 490 L 34 490 Z M 34 195 " clip-rule="nonzero"/></clipPath><clipPath id="1cd3802977"><path d="M 234.480469 -0.113281 L 524.558594 289.964844 L 230.289062 584.234375 L -59.785156 294.15625 Z M 234.480469 -0.113281 " clip-rule="nonzero"/></clipPath><clipPath id="e2ee480f63"><path d="M 234.480469 -0.113281 L 524.558594 289.964844 L 230.289062 584.234375 L -59.785156 294.15625 Z M 234.480469 -0.113281 " clip-rule="nonzero"/></clipPath><clipPath id="4cf4f5c193"><path d="M 249 496 L 252 496 L 252 497 L 249 497 Z M 249 496 " clip-rule="nonzero"/></clipPath><clipPath id="e9f0c791b6"><path d="M 234.480469 -0.113281 L 524.558594 289.964844 L 230.289062 584.234375 L -59.785156 294.15625 Z M 234.480469 -0.113281 " clip-rule="nonzero"/></clipPath><clipPath id="47c60324d1"><path d="M 234.480469 -0.113281 L 524.558594 289.964844 L 230.289062 584.234375 L -59.785156 294.15625 Z M 234.480469 -0.113281 " clip-rule="nonzero"/></clipPath><clipPath id="fd42f6254a"><path d="M 26 271 L 250 271 L 250 498 L 26 498 Z M 26 271 " clip-rule="nonzero"/></clipPath><clipPath id="02eacbc55b"><path d="M 234.480469 -0.113281 L 524.558594 289.964844 L 230.289062 584.234375 L -59.785156 294.15625 Z M 234.480469 -0.113281 " clip-rule="nonzero"/></clipPath><clipPath id="32bedcc3c8"><path d="M 234.480469 -0.113281 L 524.558594 289.964844 L 230.289062 584.234375 L -59.785156 294.15625 Z M 234.480469 -0.113281 " clip-rule="nonzero"/></clipPath><clipPath id="4e3e8527e5"><path d="M 34 352 L 168 352 L 168 488 L 34 488 Z M 34 352 " clip-rule="nonzero"/></clipPath><clipPath id="f5727cedf4"><path d="M 234.480469 -0.113281 L 524.558594 289.964844 L 230.289062 584.234375 L -59.785156 294.15625 Z M 234.480469 -0.113281 " clip-rule="nonzero"/></clipPath><clipPath id="9431cb6232"><path d="M 234.480469 -0.113281 L 524.558594 289.964844 L 230.289062 584.234375 L -59.785156 294.15625 Z M 234.480469 -0.113281 " clip-rule="nonzero"/></clipPath><clipPath id="05de8cf12b"><path d="M 167 487 L 170 487 L 170 489 L 167 489 Z M 167 487 " clip-rule="nonzero"/></clipPath><clipPath id="32142849ce"><path d="M 234.480469 -0.113281 L 524.558594 289.964844 L 230.289062 584.234375 L -59.785156 294.15625 Z M 234.480469 -0.113281 " clip-rule="nonzero"/></clipPath><clipPath id="7a4f61d550"><path d="M 234.480469 -0.113281 L 524.558594 289.964844 L 230.289062 584.234375 L -59.785156 294.15625 Z M 234.480469 -0.113281 " clip-rule="nonzero"/></clipPath><clipPath id="8c6acdf254"><rect x="0" width="524" y="0" height="551"/></clipPath></defs><g clip-path="url(#4df564bdc9)"><path fill="#ffffff" d="M 438.996094 491.011719 C 438.996094 494.386719 438.910156 497.761719 438.746094 501.132812 C 438.582031 504.503906 438.332031 507.871094 438 511.230469 C 437.671875 514.589844 437.257812 517.941406 436.761719 521.28125 C 436.265625 524.621094 435.6875 527.945312 435.03125 531.257812 C 434.371094 534.570312 433.632812 537.863281 432.8125 541.136719 C 431.992188 544.410156 431.089844 547.664062 430.109375 550.894531 C 429.132812 554.125 428.074219 557.332031 426.933594 560.511719 C 425.796875 563.6875 424.582031 566.839844 423.289062 569.957031 C 422 573.078125 420.632812 576.164062 419.1875 579.214844 C 417.742188 582.265625 416.226562 585.28125 414.632812 588.257812 C 413.042969 591.238281 411.378906 594.171875 409.644531 597.070312 C 407.90625 599.964844 406.101562 602.816406 404.226562 605.625 C 402.351562 608.429688 400.40625 611.191406 398.394531 613.902344 C 396.386719 616.613281 394.308594 619.277344 392.167969 621.886719 C 390.023438 624.496094 387.820312 627.050781 385.550781 629.554688 C 383.285156 632.054688 380.957031 634.5 378.570312 636.886719 C 376.183594 639.273438 373.738281 641.601562 371.238281 643.867188 C 368.734375 646.136719 366.179688 648.339844 363.570312 650.480469 C 360.960938 652.625 358.296875 654.699219 355.585938 656.710938 C 352.875 658.722656 350.117188 660.667969 347.308594 662.542969 C 344.5 664.417969 341.648438 666.222656 338.753906 667.960938 C 335.859375 669.695312 332.921875 671.359375 329.941406 672.949219 C 326.964844 674.542969 323.949219 676.058594 320.898438 677.503906 C 317.847656 678.945312 314.761719 680.316406 311.640625 681.605469 C 308.523438 682.898438 305.375 684.113281 302.195312 685.25 C 299.015625 686.386719 295.8125 687.445312 292.578125 688.425781 C 289.347656 689.40625 286.097656 690.308594 282.820312 691.128906 C 279.546875 691.949219 276.253906 692.6875 272.941406 693.347656 C 269.628906 694.003906 266.304688 694.582031 262.964844 695.078125 C 259.625 695.574219 256.273438 695.984375 252.914062 696.316406 C 249.554688 696.648438 246.1875 696.894531 242.816406 697.0625 C 239.445312 697.226562 236.070312 697.308594 232.695312 697.308594 C 229.316406 697.308594 225.945312 697.226562 222.570312 697.0625 C 219.199219 696.894531 215.832031 696.648438 212.472656 696.316406 C 209.113281 695.984375 205.761719 695.574219 202.421875 695.078125 C 199.082031 694.582031 195.757812 694.003906 192.445312 693.347656 C 189.136719 692.6875 185.84375 691.949219 182.566406 691.128906 C 179.292969 690.308594 176.039062 689.40625 172.808594 688.425781 C 169.578125 687.445312 166.371094 686.386719 163.191406 685.25 C 160.015625 684.113281 156.867188 682.898438 153.746094 681.605469 C 150.625 680.316406 147.542969 678.945312 144.488281 677.503906 C 141.4375 676.058594 138.421875 674.542969 135.445312 672.949219 C 132.46875 671.359375 129.53125 669.695312 126.632812 667.960938 C 123.738281 666.222656 120.886719 664.417969 118.078125 662.542969 C 115.273438 660.667969 112.511719 658.722656 109.800781 656.710938 C 107.089844 654.699219 104.429688 652.625 101.816406 650.480469 C 99.207031 648.339844 96.652344 646.136719 94.152344 643.867188 C 91.648438 641.601562 89.203125 639.273438 86.816406 636.886719 C 84.429688 634.5 82.101562 632.054688 79.835938 629.554688 C 77.566406 627.050781 75.363281 624.496094 73.222656 621.886719 C 71.078125 619.277344 69.003906 616.613281 66.992188 613.902344 C 64.980469 611.191406 63.035156 608.429688 61.160156 605.625 C 59.285156 602.816406 57.480469 599.964844 55.742188 597.070312 C 54.007812 594.171875 52.34375 591.238281 50.753906 588.257812 C 49.160156 585.28125 47.644531 582.265625 46.199219 579.214844 C 44.757812 576.164062 43.390625 573.078125 42.097656 569.957031 C 40.804688 566.839844 39.589844 563.6875 38.453125 560.511719 C 37.316406 557.332031 36.257812 554.125 35.277344 550.894531 C 34.296875 547.664062 33.394531 544.410156 32.574219 541.136719 C 31.753906 537.863281 31.015625 534.570312 30.355469 531.257812 C 29.699219 527.945312 29.121094 524.621094 28.625 521.28125 C 28.128906 517.941406 27.71875 514.589844 27.386719 511.230469 C 27.054688 507.871094 26.808594 504.503906 26.640625 501.132812 C 26.476562 497.761719 26.394531 494.386719 26.394531 491.011719 C 26.394531 487.632812 26.476562 484.257812 26.640625 480.886719 C 26.808594 477.515625 27.054688 474.148438 27.386719 470.789062 C 27.71875 467.429688 28.128906 464.078125 28.625 460.738281 C 29.121094 457.398438 29.699219 454.074219 30.355469 450.761719 C 31.015625 447.449219 31.753906 444.15625 32.574219 440.882812 C 33.394531 437.609375 34.296875 434.355469 35.277344 431.125 C 36.257812 427.894531 37.316406 424.6875 38.453125 421.507812 C 39.589844 418.332031 40.804688 415.179688 42.097656 412.0625 C 43.390625 408.941406 44.757812 405.855469 46.199219 402.804688 C 47.644531 399.753906 49.160156 396.738281 50.753906 393.761719 C 52.34375 390.78125 54.007812 387.847656 55.742188 384.949219 C 57.480469 382.054688 59.285156 379.203125 61.160156 376.394531 C 63.035156 373.589844 64.980469 370.828125 66.992188 368.117188 C 69.003906 365.40625 71.078125 362.742188 73.222656 360.132812 C 75.363281 357.523438 77.566406 354.96875 79.835938 352.46875 C 82.101562 349.964844 84.429688 347.519531 86.816406 345.132812 C 89.203125 342.746094 91.648438 340.417969 94.152344 338.152344 C 96.652344 335.882812 99.207031 333.679688 101.816406 331.539062 C 104.429688 329.394531 107.089844 327.320312 109.800781 325.308594 C 112.511719 323.296875 115.273438 321.351562 118.078125 319.476562 C 120.886719 317.601562 123.738281 315.796875 126.632812 314.058594 C 129.53125 312.324219 132.46875 310.660156 135.445312 309.070312 C 138.421875 307.476562 141.4375 305.960938 144.488281 304.515625 C 147.542969 303.074219 150.625 301.703125 153.746094 300.414062 C 156.867188 299.121094 160.015625 297.90625 163.191406 296.769531 C 166.371094 295.632812 169.578125 294.574219 172.808594 293.59375 C 176.039062 292.613281 179.292969 291.710938 182.566406 290.890625 C 185.84375 290.070312 189.136719 289.332031 192.445312 288.671875 C 195.757812 288.015625 199.082031 287.4375 202.421875 286.941406 C 205.761719 286.445312 209.113281 286.035156 212.472656 285.703125 C 215.832031 285.371094 219.199219 285.125 222.570312 284.957031 C 225.945312 284.792969 229.316406 284.710938 232.695312 284.710938 C 236.070312 284.710938 239.445312 284.792969 242.816406 284.957031 C 246.1875 285.125 249.554688 285.371094 252.914062 285.703125 C 256.273438 286.035156 259.625 286.445312 262.964844 286.941406 C 266.304688 287.4375 269.628906 288.015625 272.941406 288.671875 C 276.253906 289.332031 279.546875 290.070312 282.820312 290.890625 C 286.097656 291.710938 289.347656 292.613281 292.578125 293.59375 C 295.8125 294.574219 299.015625 295.632812 302.195312 296.769531 C 305.375 297.90625 308.523438 299.121094 311.640625 300.414062 C 314.761719 301.703125 317.847656 303.074219 320.898438 304.515625 C 323.949219 305.960938 326.964844 307.476562 329.945312 309.070312 C 332.921875 310.660156 335.859375 312.324219 338.753906 314.058594 C 341.648438 315.796875 344.5 317.601562 347.308594 319.476562 C 350.117188 321.351562 352.875 323.296875 355.585938 325.308594 C 358.296875 327.320312 360.960938 329.394531 363.570312 331.539062 C 366.179688 333.679688 368.734375 335.882812 371.238281 338.152344 C 373.738281 340.417969 376.183594 342.746094 378.570312 345.132812 C 380.957031 347.519531 383.285156 349.964844 385.550781 352.46875 C 387.820312 354.96875 390.023438 357.523438 392.167969 360.132812 C 394.308594 362.742188 396.386719 365.40625 398.394531 368.117188 C 400.40625 370.828125 402.351562 373.589844 404.226562 376.394531 C 406.101562 379.203125 407.90625 382.054688 409.644531 384.949219 C 411.378906 387.847656 413.042969 390.78125 414.632812 393.761719 C 416.226562 396.738281 417.742188 399.753906 419.1875 402.804688 C 420.632812 405.855469 422 408.941406 423.289062 412.0625 C 424.582031 415.179688 425.796875 418.332031 426.933594 421.507812 C 428.074219 424.6875 429.132812 427.894531 430.109375 431.125 C 431.089844 434.355469 431.992188 437.609375 432.8125 440.882812 C 433.632812 444.15625 434.371094 447.449219 435.03125 450.761719 C 435.6875 454.074219 436.265625 457.398438 436.761719 460.738281 C 437.257812 464.078125 437.671875 467.429688 438 470.789062 C 438.332031 474.148438 438.582031 477.515625 438.746094 480.886719 C 438.910156 484.257812 438.996094 487.632812 438.996094 491.011719 Z M 438.996094 491.011719 " fill-opacity="1" fill-rule="nonzero"/></g><g clip-path="url(#21b711a645)"><g clip-path="url(#56697ca13d)"><g clip-path="url(#fb66761f04)"><g clip-path="url(#19802a8cf1)"><g clip-path="url(#2ec486be00)"><path fill="#dddddd" d="M 707.902344 50.449219 L 709.898438 52.902344 L 712.046875 55.21875 L 714.277344 57.351562 L 716.523438 59.21875 L 718.703125 60.769531 L 720.753906 61.953125 L 722.625 62.742188 L 724.242188 63.109375 L 725.570312 63.03125 L 726.554688 62.539062 L 727.183594 61.628906 L 727.433594 60.335938 L 727.292969 58.707031 L 726.78125 56.78125 L 725.894531 54.625 L 724.683594 52.296875 L 723.171875 49.882812 L 721.398438 47.433594 L 719.429688 45.023438 L 717.316406 42.742188 L 715.128906 40.644531 L 712.917969 38.789062 L 710.757812 37.238281 L 708.714844 36.046875 L 706.855469 35.234375 L 705.226562 34.835938 L 703.875 34.859375 L 702.851562 35.328125 L 702.183594 36.191406 L 701.90625 37.453125 L 702.003906 39.078125 L 702.5 40.996094 L 703.367188 43.164062 L 704.582031 45.507812 L 706.109375 47.964844 L 707.902344 50.449219 " fill-opacity="1" fill-rule="nonzero"/></g></g></g></g></g><g clip-path="url(#37955e77fa)"><g clip-path="url(#46e448845d)"><g clip-path="url(#9e845d22c9)"><g clip-path="url(#fb6892a782)"><g clip-path="url(#8f7cbd1cf4)"><path fill="#dddddd" d="M 367.1875 352.5 L 368.945312 354.699219 L 370.894531 356.722656 L 373 358.503906 L 375.1875 359.984375 L 377.390625 361.128906 L 379.542969 361.902344 L 381.578125 362.277344 L 383.425781 362.238281 L 385.03125 361.796875 L 386.363281 360.960938 L 726.554688 62.539062 L 725.570312 63.03125 L 724.242188 63.109375 L 722.625 62.742188 L 720.753906 61.953125 L 718.703125 60.769531 L 716.523438 59.21875 L 714.277344 57.351562 L 712.046875 55.21875 L 709.898438 52.902344 L 707.902344 50.449219 L 706.109375 47.964844 L 704.582031 45.507812 L 703.367188 43.164062 L 702.5 40.996094 L 702.003906 39.078125 L 701.90625 37.453125 L 702.183594 36.191406 L 702.851562 35.328125 L 365.183594 336.84375 L 364.148438 338.011719 L 363.464844 339.515625 L 363.160156 341.3125 L 363.238281 343.335938 L 363.695312 345.542969 L 364.527344 347.847656 L 365.710938 350.199219 L 367.1875 352.5 " fill-opacity="1" fill-rule="nonzero"/></g></g></g></g></g><g mask="url(#135a28d31f)"><g transform="matrix(1, 0, 0, 1, 0, 199)"><g clip-path="url(#8c6acdf254)"><g clip-path="url(#cc098e60ce)"><g clip-path="url(#6da7932853)"><g clip-path="url(#a0a5674ce8)"><path fill="#6cace4" d="M 342.667969 132.335938 C 345.492188 142.816406 360.257812 160.792969 375.664062 172.480469 C 391.054688 184.195312 401.257812 185.183594 398.433594 174.703125 C 395.621094 164.230469 380.867188 146.253906 365.464844 134.546875 C 350.0625 122.855469 339.851562 121.867188 342.667969 132.335938 " fill-opacity="1" fill-rule="nonzero"/></g></g></g><g clip-path="url(#ff2659aced)"><g clip-path="url(#28eda5b2b3)"><g clip-path="url(#53345953ec)"><path fill="#6cace4" d="M 411.285156 187.886719 C 410.8125 187.035156 410.324219 186.175781 409.820312 185.304688 L 411.285156 187.886719 " fill-opacity="1" fill-rule="nonzero"/></g></g></g><g clip-path="url(#9c270e0df4)"><g clip-path="url(#50769847d9)"><g clip-path="url(#ce18b25c74)"><path fill="#6cace4" d="M 334.492188 111.652344 C 337.066406 113.09375 339.839844 114.726562 342.953125 116.636719 C 339.972656 114.730469 337.160156 113.050781 334.492188 111.652344 " fill-opacity="1" fill-rule="nonzero"/></g></g></g><g clip-path="url(#891643cae4)"><g clip-path="url(#4e59dcbca8)"><g clip-path="url(#1e676e9974)"><path fill="#6cace4" d="M 273.445312 113.042969 C 281.34375 142.386719 322.722656 192.78125 365.871094 225.570312 C 409.027344 258.363281 437.621094 261.152344 429.730469 231.792969 C 429.601562 231.289062 429.453125 230.777344 429.292969 230.269531 C 426.839844 222.0625 426.527344 221.25 421.128906 207.648438 C 418.117188 200.746094 417.570312 199.71875 412.414062 189.871094 L 411.285156 187.886719 C 414.058594 192.902344 416.089844 197.542969 417.171875 201.601562 C 421.828125 210.066406 425.601562 218.867188 428.53125 227.90625 C 425.601562 218.867188 421.828125 210.066406 417.171875 201.601562 C 422.613281 221.816406 402.917969 219.910156 373.1875 197.320312 C 343.464844 174.730469 314.964844 140.023438 309.53125 119.792969 C 305.363281 104.3125 315.953125 101.820312 334.492188 111.652344 C 326.644531 107.234375 320.695312 104.578125 312.808594 101.132812 C 307.378906 99.027344 300.027344 96.472656 294.507812 94.632812 C 277.316406 89.25 268.671875 95.222656 273.445312 113.042969 " fill-opacity="1" fill-rule="nonzero"/></g></g></g><g clip-path="url(#4445dd62f4)"><g clip-path="url(#eae7deff82)"><g clip-path="url(#d19badd072)"><path fill="#6cace4" d="M 199.921875 117.429688 C 211.769531 161.507812 273.910156 237.175781 338.726562 286.425781 C 394.167969 328.542969 433.585938 337.71875 436.4375 311.910156 C 437.121094 302.925781 437.589844 290.914062 437.628906 281.917969 L 436.96875 270.898438 C 439.71875 299.417969 404.941406 293.417969 354.449219 255.050781 C 299.699219 213.457031 247.199219 149.535156 237.203125 112.296875 C 232.207031 93.707031 238.742188 85.277344 253.355469 86.667969 L 242.496094 85.992188 C 233.476562 85.984375 221.453125 86.425781 212.460938 87.070312 C 199.878906 88.410156 194.820312 98.445312 199.921875 117.429688 " fill-opacity="1" fill-rule="nonzero"/></g></g></g><g clip-path="url(#f266931716)"><g clip-path="url(#c0f60b7bd1)"><g clip-path="url(#13da10f9c2)"><path fill="#6cace4" d="M 129.929688 144.703125 C 144.222656 197.875 219.15625 289.128906 297.339844 348.519531 C 357.382812 394.148438 401.851562 407.699219 412.78125 387.441406 L 416.519531 380.183594 C 421.011719 371.246094 421.71875 369.265625 428.40625 350.265625 C 421.210938 373.515625 378.550781 361.902344 319.890625 317.332031 C 247.296875 262.183594 177.714844 177.441406 164.453125 128.078125 C 159.398438 109.222656 163.25 98.261719 174.027344 94.972656 C 163.636719 98.15625 163.636719 98.15625 144.039062 106.765625 L 136.761719 110.476562 C 127.867188 115.230469 125.066406 126.578125 129.929688 144.703125 " fill-opacity="1" fill-rule="nonzero"/></g></g></g><g clip-path="url(#272585ba24)"><g clip-path="url(#1ffff7efb5)"><g clip-path="url(#119ea12854)"><path fill="#6cace4" d="M 390.417969 420.710938 C 376.5625 437.589844 331.902344 422.710938 272.582031 377.640625 C 191.554688 316.082031 113.871094 221.480469 99.066406 166.375 C 94.5625 149.609375 96.394531 138.429688 103.394531 132.726562 C 98.550781 136.757812 92.417969 142.546875 87.777344 146.820312 C 83.34375 151.328125 77.8125 157.6875 73.609375 162.40625 C 68.539062 168.589844 67.589844 179.015625 71.5625 193.777344 C 86.363281 248.898438 164.042969 343.484375 245.078125 405.046875 C 301.457031 447.882812 344.59375 463.449219 360.636719 450.386719 C 365.488281 446.347656 371.621094 440.566406 376.261719 436.285156 C 380.808594 431.902344 386.21875 425.425781 390.417969 420.710938 " fill-opacity="1" fill-rule="nonzero"/></g></g></g><g clip-path="url(#8715d54987)"><g clip-path="url(#1cd3802977)"><g clip-path="url(#e2ee480f63)"><path fill="#6cace4" d="M 218.425781 427.136719 C 140.265625 367.738281 65.328125 276.480469 51.03125 223.308594 C 47.722656 210.988281 47.964844 201.785156 51.242188 195.671875 C 48.484375 200.910156 45.226562 208.097656 42.714844 213.453125 C 40.351562 219.199219 37.675781 227.039062 35.613281 232.886719 C 33.925781 238.394531 34.214844 245.863281 36.746094 255.316406 C 50.011719 304.679688 119.597656 389.410156 192.183594 444.5625 C 237.058594 478.65625 272.550781 493.46875 290.003906 488.140625 C 298.507812 485.21875 309.691406 480.84375 317.980469 477.320312 L 327.265625 472.640625 C 310.039062 481.835938 269.96875 466.292969 218.425781 427.136719 " fill-opacity="1" fill-rule="nonzero"/></g></g></g><g clip-path="url(#4cf4f5c193)"><g clip-path="url(#e9f0c791b6)"><g clip-path="url(#47c60324d1)"><path fill="#6cace4" d="M 249.847656 496.164062 C 250.453125 496.140625 251.035156 496.105469 251.609375 496.035156 C 250.988281 496.082031 250.425781 496.117188 249.847656 496.164062 " fill-opacity="1" fill-rule="nonzero"/></g></g></g><g clip-path="url(#fd42f6254a)"><g clip-path="url(#02eacbc55b)"><g clip-path="url(#32bedcc3c8)"><path fill="#6cace4" d="M 168.207031 456.328125 C 103.375 407.085938 41.242188 331.425781 29.394531 287.328125 C 27.679688 280.957031 27.117188 275.59375 27.597656 271.222656 L 26.878906 278.757812 C 26.035156 291.238281 26.113281 292.789062 27.023438 311.820312 C 27.246094 314.332031 27.757812 317.097656 28.578125 320.160156 C 38.574219 357.394531 91.0625 421.320312 145.828125 462.910156 C 173.261719 483.761719 196.054688 495.0625 210.714844 496.445312 L 219.296875 497.027344 C 229.492188 497.589844 232.980469 497.378906 249.847656 496.164062 C 232.914062 496.890625 203.863281 483.4375 168.207031 456.328125 " fill-opacity="1" fill-rule="nonzero"/></g></g></g><g clip-path="url(#4e3e8527e5)"><g clip-path="url(#f5727cedf4)"><g clip-path="url(#9431cb6232)"><path fill="#6cace4" d="M 34.734375 352.839844 C 37.195312 361.046875 37.515625 361.859375 42.910156 375.460938 C 45.921875 382.363281 46.464844 383.398438 51.625 393.242188 L 54.214844 397.804688 C 65.75 417.351562 87.78125 441.730469 110.523438 459.019531 C 114.316406 461.90625 117.949219 464.445312 121.394531 466.664062 C 133.714844 474.019531 136.84375 475.566406 148.796875 480.957031 C 154.203125 483.238281 161.378906 485.730469 167.300781 487.738281 C 156.46875 483.890625 142.578125 475.886719 126.71875 463.847656 C 84.304688 431.605469 43.605469 382.390625 34.734375 352.839844 " fill-opacity="1" fill-rule="nonzero"/></g></g></g><g clip-path="url(#05de8cf12b)"><g clip-path="url(#32142849ce)"><g clip-path="url(#7a4f61d550)"><path fill="#6cace4" d="M 167.300781 487.738281 C 168.0625 488 168.800781 488.25 169.53125 488.46875 C 168.8125 488.238281 168.066406 487.988281 167.300781 487.738281 " fill-opacity="1" fill-rule="nonzero"/></g></g></g></g></g></g></svg>